<?xml version="1.0" encoding="UTF-8"?>
<svg version="1.1" xmlns="http://www.w3.org/2000/svg" width="124" height="59">
<path d="M0 0 C40.92 0 81.84 0 124 0 C124 19.47 124 38.94 124 59 C83.08 59 42.16 59 0 59 C0 39.53 0 20.06 0 0 Z " fill="#1B1A18" transform="translate(0,0)"/>
<path d="M0 0 C14.05599104 -0.58566629 14.05599104 -0.58566629 21 4 C23.70556375 8.05834563 23.51943246 11.24132846 23 16 C21.64532774 19.66558375 20.43027376 20.72874046 17.125 22.8125 C11.6904891 24.90179361 5.70373248 24.1764041 0 24 C0 16.08 0 8.16 0 0 Z " fill="#E7E6E6" transform="translate(6,31)"/>
<path d="M0 0 C1.65 0 3.3 0 5 0 C5.33 2.31 5.66 4.62 6 7 C7.216875 6.896875 8.43375 6.79375 9.6875 6.6875 C13.18436791 6.69992227 13.95061983 6.96605113 17 9.0625 C19.51930235 12.76272533 19.7066341 14.6031656 19 19 C17.20437595 21.75329021 15.94745078 23.52627461 13 25 C9.62177584 25.14375422 7.22609045 25.07536348 4 24 C2.68 24 1.36 24 0 24 C0 16.08 0 8.16 0 0 Z " fill="#F0F0F0" transform="translate(54,30)"/>
<path d="M0 0 C5.39241668 0 10.4760119 0.25153183 15.8203125 0.87890625 C16.89925781 0.93884766 16.89925781 0.93884766 18 1 C18.33 0.67 18.66 0.34 19 0 C25.1761458 -0.58265526 25.1761458 -0.58265526 28.21484375 1.56640625 C30.66210335 4.90260479 30.40143755 7.16118625 30.25 11.25 C30.21390625 12.51328125 30.1778125 13.7765625 30.140625 15.078125 C30.07101563 16.52445313 30.07101563 16.52445313 30 18 C28.35 18 26.7 18 25 18 C24.67 14.04 24.34 10.08 24 6 C22.35 6 20.7 6 19 6 C18.67 9.96 18.34 13.92 18 18 C16.35 18 14.7 18 13 18 C12.67 14.04 12.34 10.08 12 6 C10.35 6 8.7 6 7 6 C5.26043342 7.73956658 5.62809614 10.1936622 5.4375 12.5625 C5.35371094 13.57441406 5.26992187 14.58632813 5.18359375 15.62890625 C5.12300781 16.41136719 5.06242187 17.19382812 5 18 C3.35 18 1.7 18 0 18 C0 12.06 0 6.12 0 0 Z " fill="#EEEEED" transform="translate(91,9)"/>
<path d="M0 0 C5.53846154 3.07692308 5.53846154 3.07692308 7 6 C7.43023798 9.87214182 7.31669086 11.52496371 5.125 14.8125 C2.27406401 17.74728705 0.61137472 18.20283099 -3.375 18.375 C-6.85342253 18.31898675 -7.72211316 18.21688729 -10.5625 16 C-12.40251016 12.15997879 -12.96007379 9.17716314 -12 5 C-8.61457938 0.07575183 -5.85744862 -0.92486031 0 0 Z " fill="#EFEFEF" transform="translate(38,9)"/>
<path d="M0 0 C0.99 0.33 1.98 0.66 3 1 C2.67 2.32 2.34 3.64 2 5 C-1.3 5 -4.6 5 -8 5 C-8 5.99 -8 6.98 -8 8 C-7.30132812 8.19335938 -6.60265625 8.38671875 -5.8828125 8.5859375 C-4.97273437 8.84632812 -4.06265625 9.10671875 -3.125 9.375 C-2.22007813 9.63023438 -1.31515625 9.88546875 -0.3828125 10.1484375 C2 11 2 11 4 13 C4.375 16.4375 4.375 16.4375 4 20 C1.71706909 22.3698997 0.33752056 22.95836948 -2.9453125 23.36328125 C-4.51925781 23.33814453 -4.51925781 23.33814453 -6.125 23.3125 C-7.17945313 23.30863281 -8.23390625 23.30476563 -9.3203125 23.30078125 C-12 23 -12 23 -14 21 C-13.625 18.875 -13.625 18.875 -13 17 C-12.01 17.33 -11.02 17.66 -10 18 C-8.60560336 18.06665376 -7.20830125 18.08538199 -5.8125 18.0625 C-4.554375 18.041875 -3.29625 18.02125 -2 18 C-1.67 17.01 -1.34 16.02 -1 15 C-2.03060547 14.83564453 -2.03060547 14.83564453 -3.08203125 14.66796875 C-3.98308594 14.50941406 -4.88414063 14.35085937 -5.8125 14.1875 C-6.70582031 14.03667969 -7.59914063 13.88585938 -8.51953125 13.73046875 C-11.22781431 12.93291138 -12.32266801 12.24370383 -14 10 C-14.51924297 6.51365432 -14.39852706 4.68836492 -12.625 1.625 C-8.60960233 -0.86072237 -4.60724993 -0.46918572 0 0 Z " fill="#F0F0F0" transform="translate(19,4)"/>
<path d="M0 0 C1.65 0 3.3 0 5 0 C5 2.64 5 5.28 5 8 C5.99 7.34 6.98 6.68 8 6 C11.1803561 5.66166424 13.2722057 5.65243576 16.17578125 7.0390625 C18.47270364 9.5081311 18.41521482 11.30169554 18.3515625 14.59570312 C18.31804687 15.28599609 18.28453125 15.97628906 18.25 16.6875 C18.23195313 17.38939453 18.21390625 18.09128906 18.1953125 18.81445312 C18.14826213 20.54355436 18.07651873 22.27195205 18 24 C16.35 24 14.7 24 13 24 C12.67 20.04 12.34 16.08 12 12 C10.35 12 8.7 12 7 12 C5.26043342 13.73956658 5.62809614 16.1936622 5.4375 18.5625 C5.35371094 19.57441406 5.26992188 20.58632813 5.18359375 21.62890625 C5.12300781 22.41136719 5.06242187 23.19382812 5 24 C3.35 24 1.7 24 0 24 C0 16.08 0 8.16 0 0 Z " fill="#EFEEEE" transform="translate(48,3)"/>
<path d="M0 0 C4.56944444 2.13888889 4.56944444 2.13888889 6 5 C6.07092842 7.2072923 6.08415025 9.41667452 6.0625 11.625 C6.05347656 12.81351563 6.04445313 14.00203125 6.03515625 15.2265625 C6.02355469 16.14179688 6.01195313 17.05703125 6 18 C3.54137599 18.05383848 1.0839245 18.09359038 -1.375 18.125 C-2.42300781 18.15013672 -2.42300781 18.15013672 -3.4921875 18.17578125 C-5.32897486 18.19344267 -7.16601963 18.10303261 -9 18 C-11 16 -11 16 -11.25 13 C-11 10 -11 10 -9 8 C-6.8359375 7.8046875 -6.8359375 7.8046875 -4.375 7.875 C-3.14910156 7.90207031 -3.14910156 7.90207031 -1.8984375 7.9296875 C-0.95871094 7.96449219 -0.95871094 7.96449219 0 8 C-0.33 7.01 -0.66 6.02 -1 5 C-3.64 5 -6.28 5 -9 5 C-9.33 3.68 -9.66 2.36 -10 1 C-6.81092735 -0.59453633 -3.47055318 -0.38561702 0 0 Z " fill="#E7E7E7" transform="translate(81,9)"/>
<path d="M0 0 C3.0625 1.625 3.0625 1.625 5 4 C5 5.98 5 7.96 5 10 C0.71 10 -3.58 10 -8 10 C-7.01 11.485 -7.01 11.485 -6 13 C-3.58380177 13.25030977 -3.58380177 13.25030977 -1 13 C0.32 13 1.64 13 3 13 C3.33 13.99 3.66 14.98 4 16 C0.34148709 18.34144827 -2.72830036 18.44965259 -7 18 C-9.75329021 16.20437595 -11.52627461 14.94745078 -13 12 C-13.56580566 4.98400984 -13.56580566 4.98400984 -11.5625 1.5 C-7.73417641 -0.74096991 -4.32514685 -0.7542071 0 0 Z " fill="#ECECEC" transform="translate(45,37)"/>
<path d="M0 0 C7.25581395 -0.48372093 7.25581395 -0.48372093 10.5 1.625 C12.45562482 4.72140596 12.60024477 6.39853135 12 10 C10.5 12.375 10.5 12.375 8 14 C5.24150058 14.32638734 2.79515088 14.18634339 0 14 C0 9.38 0 4.76 0 0 Z " fill="#1C1B19" transform="translate(12,36)"/>
<path d="M0 0 C3.29714793 0.32971479 4.6226839 0.6226839 7 3 C6.625 6.125 6.625 6.125 6 9 C3.125 9.625 3.125 9.625 0 10 C-2 8 -2 8 -2.25 5 C-2 2 -2 2 0 0 Z " fill="#292826" transform="translate(33,13)"/>
<path d="M0 0 C2.5 0.25 2.5 0.25 4.5 2.25 C4.75 4.75 4.75 4.75 4.5 7.25 C2.5 9.25 2.5 9.25 -0.5625 9.4375 C-3.5 9.25 -3.5 9.25 -4.5 8.25 C-4.6875 5.3125 -4.6875 5.3125 -4.5 2.25 C-2.5 0.25 -2.5 0.25 0 0 Z " fill="#262523" transform="translate(63.5,40.75)"/>
<path d="M0 0 C2.125 0.375 2.125 0.375 4 1 C3.938125 1.78375 3.87625 2.5675 3.8125 3.375 C3.874375 4.24125 3.93625 5.1075 4 6 C4.99 6.66 5.98 7.32 7 8 C7.33 8.66 7.66 9.32 8 10 C1.9453125 10.1953125 1.9453125 10.1953125 0 10 C-2 8 -2 8 -2.25 5 C-2 2 -2 2 0 0 Z " fill="#EAEAEA" transform="translate(72,17)"/>
<path d="M0 0 C4.29 0 8.58 0 13 0 C10.22157405 2.77842595 8.21633419 3.94471208 4.25 4.125 C3.5075 4.08375 2.765 4.0425 2 4 C1.34 2.68 0.68 1.36 0 0 Z " fill="#3C3B39" transform="translate(37,47)"/>
<path d="M0 0 C1.98 0 3.96 0 6 0 C6.33 1.32 6.66 2.64 7 4 C4.69 4 2.38 4 0 4 C0 2.66666667 0 1.33333333 0 0 Z " fill="#454442" transform="translate(74,13)"/>
<path d="M0 0 C1.98 0 3.96 0 6 0 C6.33 0.99 6.66 1.98 7 3 C4.36 3 1.72 3 -1 3 C-0.67 2.01 -0.34 1.02 0 0 Z " fill="#282725" transform="translate(38,41)"/>
<path d="M0 0 C1.98 0 3.96 0 6 0 C5.67 1.32 5.34 2.64 5 4 C3.35 3.67 1.7 3.34 0 3 C0 2.01 0 1.02 0 0 Z " fill="#2D2C2B" transform="translate(75,20)"/>
</svg>
